Patient4_TMGait_0pt6_02_right_43_EMG.mot
version=1
nRows=34
nColumns=33
inDegrees=no
endheader
time	1LAddLong	2LGlutMax	3LGlutMed	4LIliopsoas	5LSemiMemb	6LBicFemLong	7LRecFem	8LVastMed	9LVastLat	10LGasMed	11LTibAnt	12lTibPost	13LPeroneusLong	14LSol	15LExtDigLong	16LFlexDigLong	17RAddLong	18RGlutMax	19RGlutMed	20RIliopsoas	21RSemiMemb	22RBicFemLong	23RRecFem	24RVastMed	25RVastLat	26RGasMed	27RTibAnt	28RTibPost	29RPeroneusLong	30RSol	31RExtDigLong	32RFlexDigLong
52.32	-0.023041	-0.01236	0.009003	-0.007324	0.025024	0.039215	0.26077	0.023346	0.25772	-0.022583	0.061035	-0.014191	-0.010986	0.020752	-0.55389	0.000305	-0.002136	-2.3384	1.0817	-0.12299	-0.8638	-0.002289	0.20599	-0.13107	-0.15259	0.089722	0.02182	-0.055847	-0.054474	-0.052032	-0.00061	-0.004578
52.321	-0.022278	-0.014343	0.018616	-0.010223	0.027924	0.040588	0.26398	0.02655	0.29511	-0.010376	0.065918	-0.015259	-0.066681	0.016022	-0.15564	0.014496	-0.007935	-2.4446	0.3801	-0.13229	-0.39749	0.037689	0.33478	0.029602	-0.4985	0.10498	0.016327	-0.044861	0.065308	0.11505	-0.001984	-0.01358
52.322	-0.022125	-0.029297	-0.002289	-0.015564	0.028381	0.036469	0.2655	0.014496	0.30655	0.067902	0.13031	-0.017548	-0.16998	-0.084686	0.20554	0.019073	-0.057983	-2.692	-1.2256	-0.066986	0.077667	0.2066	0.32913	0.072327	-0.53177	-0.000916	0.023651	0.027618	0.001678	0.25284	0.001526	-0.007935
52.323	-0.015564	0.007782	0.002899	-0.000916	0.034637	0.034332	0.2948	0.021515	0.34958	0.068359	0.11246	-0.018616	-0.20248	-0.10712	0.22919	0.022736	-0.10803	-2.6163	-1.2679	-0.10788	0.39337	0.51224	0.30197	0.097809	-0.44571	-0.1152	0.065613	-0.022736	-0.041351	0.47409	0.000458	-0.012665
52.324	-0.002899	-0.007782	0.007935	0.011597	0.042572	0.015564	0.30289	0.016479	0.35904	0.053711	0.33157	-0.011444	-0.17227	0.023956	-0.43335	0.024109	-0.082397	-2.4217	-0.56122	-0.25024	0.42602	0.56244	0.27969	0.15121	-0.2182	-0.076294	0.080109	0.001984	-0.009613	0.90897	-0.001831	-0.019989
52.325	0.011749	0.03479	0.015411	0.031586	0.044403	0.012817	0.28534	0.0177	0.3627	0.012207	0.098419	-0.016785	-0.050964	0.18219	-0.20935	0.022888	-0.059357	-2.2488	0.98709	-0.26001	0.36362	0.37491	0.16769	0.20386	-0.08255	-0.039215	0.02121	-0.10635	-0.095673	0.77759	-0.000916	-0.017242
52.326	0.002136	0.002289	0.001526	0.022736	0.042419	0.01709	0.27435	0.014343	0.36987	-0.01297	-0.20691	-0.018616	0.049744	0.28244	0.42175	0.007172	-0.032349	-2.3076	0.23346	-0.097046	0.086212	0.21835	0.18448	0.12558	-0.026703	-0.025635	0.095215	-0.28275	-0.31998	0.12787	-0.003967	-0.014343
52.327	-0.002136	0.055084	0.003204	0.035858	0.036163	0.009766	0.24216	0.016327	0.39276	-0.01236	-0.20844	-0.019684	-0.025482	0.31448	0.74371	-0.00946	-0.052948	-2.3433	-0.45319	0.10864	-0.17532	0.015259	0.25803	0.22186	-0.030975	-0.020599	0.13168	-0.20676	-0.34592	0.003204	-0.002441	-0.008698
52.328	0.002747	0.13657	0.014648	-0.000916	0.044861	0.017548	0.27252	0.009155	0.42328	-0.042572	-0.19852	-0.012054	0.015106	0.21576	1.4253	0.008392	-0.085754	-2.3882	-0.45364	0.2533	-0.3157	-0.15152	0.30884	0.27969	-0.042877	-0.003052	0.12924	0.017548	-0.16724	0.15533	0.003357	0.002441
52.329	-0.006561	0.18204	0.021362	0.012512	0.033875	0.001221	0.31067	0.00946	0.4245	-0.016937	-0.11765	-0.011749	-0.060883	0.12238	0.21759	0.00061	-0.083313	-2.3175	-0.86472	0.401	-0.22446	-0.16083	0.33493	0.3714	-0.022736	-0.055389	0.11505	0.21393	0.13062	0.068665	-0.001068	0.00412
52.33	-0.007019	0.18341	0.007477	0.022125	0.03952	0.032196	0.29175	0.00351	0.41626	-0.030518	0.050201	-0.007935	-0.12909	0.20889	-0.25971	-0.010071	-0.044403	-2.2946	-1.1073	0.15533	-0.076141	-0.13336	0.3389	0.30045	-0.019379	-0.079956	0.12924	0.1831	0.23392	-0.16907	-0.000305	0.007782
52.331	-0.003967	0.17899	0.032959	0.008087	0.033722	0.019531	0.28595	0.011444	0.43869	-0.02533	0.057068	-0.015869	-0.070801	0.20828	-0.78735	-0.015106	-0.029755	-2.1979	-1.2666	0.05661	0.1886	-0.21454	0.23972	0.29572	-0.002899	-0.13473	0.000305	0.063171	0.1503	-0.27542	0	0.007477
52.332	-0.00824	0.22934	0.030823	-0.014191	0.028687	0.031891	0.31433	-0.000916	0.4187	-0.000763	-0.28473	-0.011444	-0.019989	0.009613	-1.002	-0.02533	0.00473	-2.0897	-0.61249	-0.025635	0.30579	-0.2803	0.19501	0.14954	-0.005646	-0.16968	-0.020447	-0.022736	-0.56458	-0.49606	-0.002289	0.009003
52.333	0.025635	0.25192	0.012207	-0.043335	0.030975	0.027771	0.34958	0.003815	0.39795	0.038452	-0.41534	-0.011749	-0.052338	-0.19318	-0.75104	-0.016327	0.018768	-1.9342	-0.34897	-0.032196	-0.048981	-0.20477	0.2272	0.12329	-0.011902	-0.037079	-0.029144	-0.17166	-0.95627	-0.51498	-0.003967	0.020447
52.334	-0.092468	0.30258	0.003052	-0.034332	0.037079	0.028992	0.32745	0.005341	0.38971	0.061035	-0.30212	-0.011597	-0.12283	-0.1889	0.2002	-0.003357	-0.021362	-1.7288	-0.019836	-0.044098	-0.35461	-0.16663	0.19486	0.057678	-0.022888	0.24338	-0.071716	-0.58762	-1.006	-0.71045	-0.003662	0.025177
52.335	-0.010681	0.31082	0.0177	0.012207	0.031586	0.014343	0.27863	0.001526	0.37354	0.037384	-0.033722	-0.007324	-0.11032	-0.065613	0.13519	0.005035	-0.095978	-1.7075	-0.16708	-0.038147	-0.11581	-0.029602	0.16281	0.025787	0.31372	0.18433	-0.014343	-0.21393	-0.91934	-0.9259	0.003204	0.018311
52.336	0.005493	0.30884	0.022736	0.041962	0.037384	0.016174	0.27145	0.003357	0.35767	0.00351	0.17029	0.000916	-0.12405	-0.055389	-0.1828	0.008392	-0.089264	-1.5836	-0.79178	-0.0177	0.13947	0.036316	0.26794	-0.28076	0.31525	0.046234	0.037079	0.31128	-0.57816	-1.1009	-0.00061	0.016174
52.337	0.005798	0.31525	0.024567	0.064087	0.031891	0.006561	0.27725	-0.00061	0.30716	-0.015106	0.45487	-0.00473	-0.14725	-0.063629	-0.01358	0.010071	-0.054321	-1.4366	-0.39841	-0.048218	-0.017395	0.015259	0.28564	-0.24979	0.20172	-0.032654	0.033112	-0.13702	0.045013	-1.4285	-0.001068	0.00885
52.338	-0.00473	0.33844	0.027618	0.007324	0.03479	-0.025635	0.29327	-0.007782	0.28702	-0.028687	0.074005	-0.015411	-0.093231	0.055084	-0.06134	0.009918	-0.00061	-1.3811	-0.95856	-0.041504	0.019684	0.013275	0.33783	-0.21957	0.013123	-0.042877	0.055084	0.10742	0.46585	-0.69168	0.001068	-0.001373
52.339	-0.00473	0.36331	0.02533	-0.02655	0.034943	-0.014343	0.25803	-0.005188	0.26398	-0.014191	-0.1506	-0.005493	-0.11856	0.06958	-0.033264	0.014496	0.010071	-1.2653	-1.3428	0.010223	0.0177	-0.032043	0.21652	-0.1265	-0.12863	-0.048828	0.085907	0.43304	0.7515	0.5339	-0.000916	0.006561
52.34	0.006256	0.3598	0.005798	-0.026093	0.031128	-0.014343	0.22614	-0.008087	0.23331	0.023956	0.010529	-0.004425	-0.20996	0.033264	0.21072	0.010376	-0.007935	-0.92361	-1.3098	0.02533	-0.10956	-0.27252	-0.11398	-0.11215	-0.14587	-0.01709	0.15717	0.022888	0.42893	0.50262	-0.000763	-0.00885
52.341	-0.002136	0.30823	0.017548	-0.02533	0.033417	0.001068	0.27664	-0.006409	0.18875	0.050201	0.11658	-0.011597	-0.24033	0.007782	0.69214	0.007324	0.009003	-0.64957	-0.96954	-0.012054	-0.096436	-0.28946	-0.49606	-0.02594	-0.23086	0.018616	0.16373	0.33279	0.30365	0.46219	-0.001221	-0.019073
52.342	-0.008545	0.30609	0.019531	-0.031738	0.033112	-0.027771	0.34286	-0.010986	0.16129	0.069885	0.2066	-0.004425	-0.27924	-0.026093	-0.33127	0.008392	0.076904	-0.19211	-0.90469	-0.013428	0.20035	-0.50049	-0.40329	0.048676	-0.22186	-0.011749	0.30411	0.30548	0.040283	0.02243	0.001068	-0.022125
52.343	-0.004272	0.28275	0.039368	-0.011139	0.036621	-0.009918	0.25772	-0.001068	0.10925	0.056458	0.14389	-0.010376	-0.21759	-0.016174	0.61035	0.007782	0.10346	0.15839	-0.81406	-0.10529	0.3038	-0.75531	-0.04715	-0.043793	-0.22934	-0.064545	0.17746	0.085602	-0.17853	-0.24582	-0.000458	-0.01297
52.344	-0.011292	0.27969	0.041351	0.001831	0.039978	-0.044708	0.21988	-0.002899	0.074768	0.060577	-0.004272	-0.007172	-0.16068	-0.038452	-0.51254	-0.000458	0.1329	0.48523	-0.24063	-0.20706	0.076599	-0.68222	0.14603	0.013885	0.079803	-0.12405	0.36087	0.02121	-0.22034	-0.16281	0.000763	-0.023346
52.345	-0.016785	0.25436	0.040588	0.036163	0.034943	-0.016785	0.17532	-0.004578	0.060425	0.034943	-0.25024	-0.004578	-0.072174	-0.027008	-0.25085	0.005035	0.12512	0.77789	0.8934	-0.25131	-0.22553	-0.37659	0.17502	0.19318	0.18585	-0.12146	0.45654	0.006256	-0.085907	-0.38025	-0.001373	-0.015564
52.346	-0.015564	0.23712	0.057678	0.00946	0.031586	-0.002136	0.15472	0	0.053253	0.004578	-0.26169	-0.005341	0.045319	-0.047302	0.31281	0.0177	0.11475	0.92865	0.34744	-0.26642	-0.77911	0.31174	0.058594	0.30563	0.22751	-0.069885	0.46707	-0.032959	0.047913	-0.10071	-0.005798	-0.011902
52.347	-0.014801	0.22003	0.052032	-0.055847	0.029297	0.003357	0.14801	-0.000763	0.027161	-0.009766	-0.22034	-0.001984	0.037079	0.029602	0.55969	0.015717	-0.054932	0.91705	-0.06958	-0.22781	-0.49713	0.88943	0.050964	0.30258	0.18936	0.03006	-0.071106	-0.023041	0.082703	0.18585	-0.012207	-0.019989
52.348	-0.024414	0.23407	0.079041	-0.082245	0.028992	-0.002136	0.085754	0	-0.003815	-0.040588	0.007172	-0.00473	0.027161	0.18066	0.10284	0.018616	-0.21088	0.88913	-0.4747	-0.041199	0.26779	0.55603	-0.066681	0.40619	0.16876	0.10757	-0.14114	-0.040131	0.23682	0.61203	-0.006409	-0.011292
52.349	-0.011292	0.24597	0.090942	-0.032349	0.02655	0.037384	0.005493	0.001526	-0.014191	-0.035858	0.26169	0.000763	-0.12512	0.22095	0.15915	0.03418	-0.20432	1.0132	-0.62241	0.090027	0.29831	0.49774	-0.06073	0.3656	0.15427	0.061798	0.25207	-0.046082	0.21561	1.18	-0.002136	0.000458
52.35	-0.01358	0.23163	0.099182	0.018005	0.019836	0.029755	-0.006409	-0.007629	-0.037689	-0.049286	0.22903	-0.003967	-0.12268	0.17609	-0.059662	0.037842	-0.14984	1.0077	-0.55267	0.041351	0.46081	0.79544	-0.02655	0.30533	0.15091	0.12421	-0.17014	-0.056152	0.29465	0.75043	-0.001373	-0.001373
52.351	-0.011292	0.22095	0.11658	0.024567	0.010223	0.0177	-0.009766	-0.010986	-0.046539	-0.080566	-0.12558	0.002594	0.028229	0.21759	-0.040741	0.020905	-0.086823	1.1583	-0.26337	-0.03418	0.22492	0.64758	-0.087433	0.23041	0.13046	0.072937	-0.77942	-0.066071	0.25207	0.027313	-0.003967	-0.012665
52.352	-0.010071	0.2124	0.090485	0.00946	0.019989	0.024109	-0.0737	-0.007324	-0.06073	-0.000305	-0.16312	-0.000916	-0.014496	0.13016	0.24963	0.00351	-0.030212	1.2279	-0.26321	-0.07782	0.024109	0.32379	-0.040131	0.11276	0.055237	-0.009308	-1.1209	-0.092163	0.30182	-0.64438	0.000153	-0.019684
52.353	-0.006561	0.23056	0.090332	-0.003662	0.032043	0.040131	-0.08194	-0.007782	-0.084991	0.029602	-0.19745	0.003662	-0.15778	-0.044556	-0.55588	0.005646	0.027313	1.2251	-0.20706	-0.085754	0.13214	-0.11185	0.12482	-0.015106	0.021362	-0.048065	-0.73212	-0.10727	0.069885	-1.3113	0.003052	-0.024109
